<svg xmlns="http://www.w3.org/2000/svg" xmlns:xlink="http://www.w3.org/1999/xlink" xmlns:fi="http://pattern.flaticon.com/" x="0" y="0" width="1000" height="500" viewBox="0 0 1750 875">
  <rect x="0px" y="0px" width="100%" height="100%" opacity="0.95" fill="#a2f1ff"/>
  <defs>
    <g transform="matrix(0.1247401237487793 0 0 0.1247401237487793 109 172)" id="L1_0">
      <path d="M256.7,301.9h-27.5c-10,0-18.1-8.1-18.1-18.1s8.1-18.1,18.1-18.1h48.4c6.6,0,12-5.4,12-12c0-6.6-5.4-12-12-12h-22.7V225    c0-6.6-5.4-12-12-12s-12,5.4-12,12v16.7h-1.7c-23.2,0-42.1,18.9-42.1,42.1s18.9,42.1,42.1,42.1h27.5c10,0,18.1,8.1,18.1,18.1    s-8.1,18.1-18.1,18.1h-49.3c-6.6,0-12,5.4-12,12c0,6.6,5.4,12,12,12H231v17.1c0,6.6,5.4,12,12,12c6.6,0,12-5.4,12-12v-17.1h2    c0.1,0,0.2,0,0.3,0c23-0.3,41.5-19.1,41.5-42.1C298.8,320.8,279.9,301.9,256.7,301.9z"/>
      <path d="M423.3,274.7c-12.6-29-30-57.1-52-83.4c-26.6-32-53.1-53.4-66.6-63.3l51-94.6c2.5-4.7,1.7-10.5-2.2-14.2    C340.3,6.3,326.3,0,310.7,0c-14.3,0-27.4,5.4-38.8,10.2c-9,3.7-17.5,7.3-24.4,7.3c-2.1,0-3.9-0.3-5.7-1C218,7.8,199.7,2.4,182,2.4    c-22.4,0-41.5,9-60.2,28.2c-3.9,4-4.5,10.3-1.4,15l55,83.1c-13.6,10.1-39.6,31.3-65.7,62.6c-21.9,26.3-39.4,54.4-52,83.4    c-15.8,36.5-23.8,74.6-23.8,113.2c0,51.3,41.8,93.1,93.1,93.1h227c51.3,0,93.1-41.8,93.1-93.1    C447.1,349.3,439.1,311.2,423.3,274.7z M146,40.6c11.6-10,22.7-14.4,36-14.4c14.2,0,30.2,4.8,51.5,12.7c4.4,1.6,9.1,2.4,13.9,2.4    c11.7,0,22.9-4.6,33.6-9.1c10.3-4.3,20.1-8.4,29.6-8.4c4.6,0,11.1,0.8,19.3,6.6l-48,89.2h-83.6L146,40.6z M354,457H127    c-38.1,0-69.1-31-69.1-69.1c0-64.1,23.5-124.9,69.7-180.7c29.2-35.3,58.9-57.2,67.9-63.6h89.8c9.1,6.3,38.7,28.3,67.9,63.6    c46.3,55.8,69.7,116.5,69.7,180.7C423.1,426,392.1,457,354,457z"/>
    </g>
    <g transform="matrix(0.12765957415103912 0 0 0.12765957415103912 266 304)" id="L1_1">
      <path d="M252.5,223h-34.9c-14.5,0-26.3-11.8-26.3-26.3s11.8-26.3,26.3-26.3h61.6c6.6,0,12-5.4,12-12s-5.4-12-12-12h-32.1v-24.5    c0-6.6-5.4-12-12-12s-12,5.4-12,12v24.5h-5.5c-27.7,0-50.3,22.6-50.3,50.3s22.6,50.3,50.3,50.3h34.9c14.5,0,26.3,11.8,26.3,26.3    s-11.8,26.3-26.3,26.3h-62.7c-6.6,0-12,5.4-12,12s5.4,12,12,12H223v25c0,6.6,5.4,12,12,12s12-5.4,12-12v-25h5.8c0.1,0,0.2,0,0.3,0    c27.4-0.4,49.6-22.8,49.6-50.3C302.7,245.5,280.2,223,252.5,223z"/><path d="M401.2,68.8C356.8,24.4,297.8,0,235,0S113.2,24.4,68.8,68.8S0,172.2,0,235s24.4,121.8,68.8,166.2S172.2,470,235,470    s121.8-24.4,166.2-68.8S470,297.8,470,235S445.6,113.2,401.2,68.8z M235,446c-116.3,0-211-94.7-211-211S118.7,24,235,24    s211,94.7,211,211S351.3,446,235,446z"/>
    </g>
  </defs>
  <g fi:class="KUsePattern">
    <pattern id="pattern_L1_0" width="350" height="350" patternUnits="userSpaceOnUse">
      <use xlink:href="#L1_0" x="-350" y="-350"/>
      <use xlink:href="#L1_0" x="0" y="-350"/>
      <use xlink:href="#L1_0" x="350" y="-350"/>
      <use xlink:href="#L1_0" x="-350" y="0"/>
      <use xlink:href="#L1_0" x="0" y="0"/>
      <use xlink:href="#L1_0" x="350" y="0"/>
      <use xlink:href="#L1_0" x="-350" y="350"/>
      <use xlink:href="#L1_0" x="0" y="350"/>
      <use xlink:href="#L1_0" x="350" y="350"/>
    </pattern>
    <rect x="0" y="0" width="100%" height="100%" fill="url(#pattern_L1_0)"/>
  </g>
  <g fi:class="KUsePattern">
    <pattern id="pattern_L1_1" width="350" height="350" patternUnits="userSpaceOnUse">
      <use xlink:href="#L1_1" x="-350" y="-350"/>
      <use xlink:href="#L1_1" x="0" y="-350"/>
      <use xlink:href="#L1_1" x="350" y="-350"/>
      <use xlink:href="#L1_1" x="-350" y="0"/>
      <use xlink:href="#L1_1" x="0" y="0"/>
      <use xlink:href="#L1_1" x="350" y="0"/>
      <use xlink:href="#L1_1" x="-350" y="350"/>
      <use xlink:href="#L1_1" x="0" y="350"/>
      <use xlink:href="#L1_1" x="350" y="350"/>
    </pattern>
    <rect x="0" y="0" width="100%" height="100%" fill="url(#pattern_L1_1)"/>
  </g>
</svg>
